<?xml version="1.0" encoding="UTF-8" standalone="no"?>
<!-- Created with Inkscape (http://www.inkscape.org/) -->

<svg
   xmlns:dc="http://purl.org/dc/elements/1.1/"
   xmlns:cc="http://creativecommons.org/ns#"
   xmlns:rdf="http://www.w3.org/1999/02/22-rdf-syntax-ns#"
   xmlns:svg="http://www.w3.org/2000/svg"
   xmlns="http://www.w3.org/2000/svg"
   xmlns:sodipodi="http://sodipodi.sourceforge.net/DTD/sodipodi-0.dtd"
   xmlns:inkscape="http://www.inkscape.org/namespaces/inkscape"
   width="157.45174"
   height="88.318878"
   viewBox="0 0 41.659107 23.367704"
   version="1.1"
   id="svg720"
   inkscape:version="0.92.0 r15299"
   sodipodi:docname="workspace.svg">
  <defs
     id="defs714">
    <clipPath
       id="clipPath141"
       clipPathUnits="userSpaceOnUse">
      <path
         inkscape:connector-curvature="0"
         id="path139"
         d="M 18.708,19.842 H 185.624 V 131.119 H 18.708 Z" />
    </clipPath>
  </defs>
  <sodipodi:namedview
     id="base"
     pagecolor="#ffffff"
     bordercolor="#666666"
     borderopacity="1.0"
     inkscape:pageopacity="0.0"
     inkscape:pageshadow="2"
     inkscape:zoom="5.7333978"
     inkscape:cx="78.225866"
     inkscape:cy="43.659417"
     inkscape:document-units="mm"
     inkscape:current-layer="layer1"
     showgrid="false"
     fit-margin-top="0"
     fit-margin-left="0"
     fit-margin-right="0"
     fit-margin-bottom="0"
     units="px"
     inkscape:window-width="1280"
     inkscape:window-height="744"
     inkscape:window-x="-4"
     inkscape:window-y="-4"
     inkscape:window-maximized="1" />
  <metadata
     id="metadata717">
    <rdf:RDF>
      <cc:Work
         rdf:about="">
        <dc:format>image/svg+xml</dc:format>
        <dc:type
           rdf:resource="http://purl.org/dc/dcmitype/StillImage" />
        <dc:title></dc:title>
      </cc:Work>
    </rdf:RDF>
  </metadata>
  <g
     inkscape:label="Layer 1"
     inkscape:groupmode="layer"
     id="layer1"
     transform="translate(-32.219406,-213.36838)">
    <g
       id="g865"
       transform="translate(0.13229013,-0.13228937)">
      <path
         d="m 73.288313,233.32329 c -0.155222,0.15064 -0.347486,0.23001 -0.559506,0.23001 -0.200377,0 -0.397227,-0.0825 -0.544336,-0.23177 -0.147814,-0.14993 -0.229658,-0.34255 -0.229658,-0.54787 0,-0.20496 0.08502,-0.40463 0.236361,-0.5588 0.142875,-0.14569 0.334786,-0.22295 0.544689,-0.22295 0.214136,0 0.406753,0.0797 0.556683,0.23248 0.144639,0.14464 0.222603,0.34043 0.222603,0.55668 0,0.20814 -0.08043,0.4004 -0.226836,0.54222 m 0.07056,-1.16664 c -0.167217,-0.17003 -0.386292,-0.25999 -0.625828,-0.25999 -0.236009,0 -0.448028,0.0847 -0.608895,0.24871 -0.169686,0.1725 -0.265289,0.39687 -0.265289,0.62829 0,0.23178 0.08961,0.44662 0.256117,0.61489 0.16757,0.17004 0.384881,0.26318 0.618067,0.26318 0.230011,0 0.451908,-0.0931 0.624416,-0.26106 0.1651,-0.16087 0.25647,-0.37571 0.25647,-0.61701 0,-0.23354 -0.09349,-0.45296 -0.255058,-0.61701"
         style="fill:#000000;fill-opacity:1;fill-rule:nonzero;stroke:none;stroke-width:0.35277778"
         id="path145"
         inkscape:connector-curvature="0" />
      <path
         d="m 72.76218,232.77461 c 0.148872,0 0.255764,-0.0769 0.255764,-0.20461 v -0.004 c 0,-0.12242 -0.09454,-0.19615 -0.255058,-0.19615 h -0.307623 v 0.40464 z m -0.418747,-0.50871 h 0.428272 c 0.123119,0 0.220839,0.0367 0.283633,0.0995 0.04833,0.0483 0.07655,0.11818 0.07655,0.19685 v 0.002 c 0,0.16545 -0.113947,0.26246 -0.270933,0.29139 l 0.307622,0.40746 h -0.138994 l -0.288925,-0.38806 h -0.0032 -0.282223 v 0.38806 h -0.11183 z"
         style="fill:#000000;fill-opacity:1;fill-rule:nonzero;stroke:none;stroke-width:0.35277778"
         id="path149"
         inkscape:connector-curvature="0" />
      <path
         d="m 32.219406,232.42596 h 0.999419 l 0.878064,2.86914 0.950384,-2.88078 h 0.798688 l 0.950384,2.88078 0.878064,-2.86914 h 0.974725 l -1.446742,4.26755 h -0.811389 l -0.956733,-2.77213 -0.956028,2.77213 h -0.811389 z"
         style="fill:#000000;fill-opacity:1;fill-rule:nonzero;stroke:none;stroke-width:0.35277778"
         id="path153"
         inkscape:connector-curvature="0" />
      <path
         d="m 42.18372,234.55698 v -0.012 c 0,-0.72673 -0.532694,-1.33245 -1.283406,-1.33245 -0.750358,0 -1.271411,0.59408 -1.271411,1.31975 v 0.0127 c 0,0.72566 0.532695,1.33138 1.283406,1.33138 0.751064,0 1.271411,-0.59267 1.271411,-1.31939 m -3.529189,0 v -0.012 c 0,-1.2058 0.950736,-2.19181 2.257778,-2.19181 1.307042,0 2.246489,0.97437 2.246489,2.17911 v 0.0127 c 0,1.20473 -0.950031,2.1911 -2.258484,2.1911 -1.307394,0 -2.245783,-0.97402 -2.245783,-2.17911"
         style="fill:#000000;fill-opacity:1;fill-rule:nonzero;stroke:none;stroke-width:0.35277778"
         id="path157"
         inkscape:connector-curvature="0" />
      <path
         d="m 45.562167,234.4841 c 0.454731,0 0.714728,-0.24201 0.714728,-0.59972 v -0.0113 c 0,-0.40005 -0.279047,-0.60643 -0.733072,-0.60643 h -0.926042 v 1.21744 z m -1.876778,-2.05811 h 1.937103 c 0.539397,0 0.957086,0.15099 1.235428,0.42934 0.236008,0.23671 0.363714,0.56938 0.363714,0.96908 v 0.012 c 0,0.68404 -0.369711,1.11407 -0.908756,1.31374 l 1.035403,1.51377 H 46.25855 l -0.908402,-1.35643 H 45.3378 44.617781 v 1.35643 h -0.932392 z"
         style="fill:#000000;fill-opacity:1;fill-rule:nonzero;stroke:none;stroke-width:0.35277778"
         id="path161"
         inkscape:connector-curvature="0" />
      <path
         d="m 47.89745,232.42596 h 0.931686 v 1.85244 l 1.720497,-1.85244 h 1.12642 l -1.726495,1.79811 1.804459,2.43981 h -1.12007 l -1.313744,-1.80411 -0.491067,0.508 v 1.29611 H 47.89745 Z"
         style="fill:#000000;fill-opacity:1;fill-rule:nonzero;stroke:none;stroke-width:0.35277778"
         id="path165"
         inkscape:connector-curvature="0" />
      <path
         d="m 51.875513,236.04634 0.551039,-0.6604 c 0.381705,0.31538 0.781403,0.51506 1.265767,0.51506 0.381705,0 0.611363,-0.15135 0.611363,-0.3997 v -0.012 c 0,-0.23565 -0.144991,-0.35665 -0.853722,-0.53904 -0.853722,-0.21731 -1.404408,-0.45367 -1.404408,-1.29575 v -0.0116 c 0,-0.76871 0.617361,-1.27741 1.483078,-1.27741 0.617714,0 1.144058,0.19297 1.5748,0.53834 l -0.485423,0.70273 c -0.375002,-0.26 -0.744361,-0.41804 -1.101019,-0.41804 -0.358069,0 -0.545394,0.16333 -0.545394,0.36971 v 0.012 c 0,0.27834 0.181327,0.36901 0.9144,0.55669 0.859366,0.22401 1.344083,0.53304 1.344083,1.27141 v 0.012 c 0,0.84173 -0.641703,1.3141 -1.556103,1.3141 -0.642055,0 -1.289403,-0.22402 -1.798461,-0.67804"
         style="fill:#000000;fill-opacity:1;fill-rule:nonzero;stroke:none;stroke-width:0.35277778"
         id="path169"
         inkscape:connector-curvature="0" />
      <path
         d="m 57.524544,234.56305 c 0.466372,0 0.738364,-0.27799 0.738364,-0.6417 v -0.012 c 0,-0.41769 -0.289983,-0.64276 -0.756356,-0.64276 H 56.78618 v 1.29646 z m -1.671108,-2.13713 h 1.731786 c 1.011061,0 1.621719,0.59902 1.621719,1.46509 v 0.0123 c 0,0.98036 -0.762353,1.48872 -1.713089,1.48872 H 56.78618 v 1.27176 h -0.932744 z"
         style="fill:#000000;fill-opacity:1;fill-rule:nonzero;stroke:none;stroke-width:0.35277778"
         id="path173"
         inkscape:connector-curvature="0" />
      <path
         d="m 61.633911,234.89036 -0.562681,-1.37477 -0.564444,1.37477 z m -0.980722,-2.49449 h 0.859719 l 1.816453,4.2679 h -0.975078 l -0.386997,-0.95073 h -1.792464 l -0.38735,0.95073 h -0.950383 z"
         style="fill:#000000;fill-opacity:1;fill-rule:nonzero;stroke:none;stroke-width:0.35277778"
         id="path177"
         inkscape:connector-curvature="0" />
      <path
         d="m 63.224374,234.55698 v -0.012 c 0,-1.2058 0.90805,-2.19181 2.210153,-2.19181 0.798689,0 1.277055,0.26705 1.670755,0.65334 l -0.593372,0.68474 c -0.327378,-0.29704 -0.659694,-0.47872 -1.083733,-0.47872 -0.714728,0 -1.228725,0.59408 -1.228725,1.31975 v 0.0127 c 0,0.72566 0.502355,1.33138 1.228725,1.33138 0.484364,0 0.780697,-0.19368 1.114425,-0.49636 l 0.593019,0.59972 c -0.436033,0.46567 -0.920397,0.75636 -1.737783,0.75636 -1.24707,0 -2.173464,-0.96203 -2.173464,-2.17911"
         style="fill:#000000;fill-opacity:1;fill-rule:nonzero;stroke:none;stroke-width:0.35277778"
         id="path181"
         inkscape:connector-curvature="0" />
      <path
         d="m 67.670362,232.42596 h 3.196167 v 0.82938 h -2.270125 v 0.85937 h 1.99778 v 0.82938 h -1.99778 v 0.8897 h 2.300816 v 0.83009 h -3.226858 z"
         style="fill:#000000;fill-opacity:1;fill-rule:nonzero;stroke:none;stroke-width:0.35277778"
         id="path185"
         inkscape:connector-curvature="0" />
      <path
         d="m 41.34545,224.16302 c -1.938514,0 -3.510139,-1.57127 -3.510139,-3.51014 0,-1.93851 1.571625,-3.50978 3.510139,-3.50978 1.938514,0 3.510139,1.57127 3.510139,3.50978 0,1.93887 -1.571625,3.51014 -3.510139,3.51014 m 0,-10.53006 c -3.877028,0 -7.020278,3.14289 -7.020278,7.01992 0,3.87738 3.14325,7.02028 7.020278,7.02028 3.877028,0 7.019925,-3.1429 7.019925,-7.02028 0,-3.87703 -3.142897,-7.01992 -7.019925,-7.01992"
         style="fill:#00b0e3;fill-opacity:1;fill-rule:nonzero;stroke:none;stroke-width:0.35277778"
         id="path189"
         inkscape:connector-curvature="0" />
      <path
         d="m 35.436881,228.27564 c -0.817386,0 -1.480256,-0.66287 -1.480256,-1.48026 0,-0.81738 0.66287,-1.4799 1.480256,-1.4799 0.817386,0 1.480256,0.66252 1.480256,1.4799 0,0.81739 -0.66287,1.48026 -1.480256,1.48026 m 0,-4.69759 c -1.776942,0 -3.217333,1.44075 -3.217333,3.21733 0,1.7773 1.440391,3.21769 3.217333,3.21769 1.776942,0 3.217333,-1.44039 3.217333,-3.21769 0,-1.77658 -1.440391,-3.21733 -3.217333,-3.21733"
         style="fill:#0082b2;fill-opacity:1;fill-rule:nonzero;stroke:none;stroke-width:0.35277778"
         id="path193"
         inkscape:connector-curvature="0" />
    </g>
  </g>
</svg>
